<svg xmlns="http://www.w3.org/2000/svg" width="16" height="16"><path fill="#eeeeed" d="M0 .5V0h1v1.5l.1.9q.1.4.4.6l.4.6.1.9v1l.1.9.4.6.5.5.5.5.4.6.1.4v-.3l-.2-.3v.2l.3.3.2.1H4l-.2.3q-.1.4-.4.7l-.5.5-.5.5-.5.5-.5.5q-.3.3-.3.5 0 .3.3.5l.5.5.6.4.8.2.6.4.6.4.4.1h-.3l-.3-.2h.2l.4.2h.3H5v.5L5 16H0V.5M3.1.4 3 0h1l-.1.4q-.1.3-.4.3-.3 0-.4-.3M6.1.4 6 0h1l-.1.4q-.2.3-.4.3-.3 0-.4-.3M11.1.4 11 0h1l-.1.4q-.2.3-.4.3-.3 0-.4-.3M14 .5V0h2v16h-4v-.5l.1-.9.4-.6.4-.6.1-.9v-1l-.1-.9-.4-.6-.4-.6q-.1-.4 0-.8l.4-.6.5-.5.5-.5.4-.6V4.9l-.2.1.2-.1.1-.4v-.3.8V.5"/><path fill="#ffc081" d="M5.1 3.6c.1-.4.6-.5 1-.6H10c0 .5 0 3.1.2 3.6.3.4.7 0 .7-.4L11 3l1.7.2.6-.2c.2 0 .5 2 .6 1.8.2-.1-.1 0 0 .2 0 .6.2 1.2-.2 1.7-.2.4-.6.6-.9 1-.3.3-.6.6-.7 1V9v-.6.8c0-.2 0-.2-.2-.2H6.2l-1.3-.1c-.2.1-.2.1 0 0l.1-.7V9 6.2l.1-2.6Zm6.3-.6h-.7 1zM10 3h-.8 1z"/><path fill="#222" d="M10 5.5V5h1v.5l-.1.9q-.2.3-.4.3-.3 0-.4-.3l-.1-.9m1.1-.5h-.8 1-.2m-.7 0h-.7 1.1-.4"/><path fill="#bbbbba" d="M5 15.5V13H5h.8H5h7V13v2.8V13v3H5z"/><path fill="#61b0ff" d="M4 9.3C4 9.2 4 9 4 9c-.2-.2.4.2.5.1.3 0 .3 0 0 0H4h1-.8c.3 0 .6 0 .8-.3-.2.2 0 .2.2.2 1.1.2 2.3 0 3.5.1h3.4v.4c.1.3 0 0 0-.1a1389 1389 0 0 1 .5.8c.5.7.4 1.6.4 2.4 0 .6-.2 1.2-.6 1.6l-.4.9.2-.6-.2.8c0-.2 0-.2-.2-.2H5.9c-.7 0-1.5 0-2-.6-.6-.5-1.5-.4-2-1-.3-.3-.7-.6-.6-1 .1-.4.5-.7.8-1L3.6 10l.3-.6Z"/><path fill="#00f" d="M1 .5V0h2c.1.3.1.7.5.8.4-.1.4-.5.5-.8h2c.1.3.1.7.5.8.4-.1.4-.5.5-.8h4c.1.3.1.7.5.8.4-.1.4-.5.5-.8h2v4.6c0 .5-.6.4-1 .4H6.4C5.6 5 5 5.4 5 6.1v2.5c-.2.8-1.3.3-1.3-.3L2.3 6.7c-.6-1 0-2.4-.6-3.4-.4-.5-.7-1-.7-1.7V.5Z"/></svg>